LG_walk_Faster01																		
version=1																		
nRows=87																		
nColumns=19																		
inDegrees=yes																		
endheader																		
time	ground_force2_vx	ground_force2_vy	ground_force2_vz	ground_force2_px	ground_force2_py	ground_force2_pz	ground_torque2_x	ground_torque2_y	ground_torque2_z	ground_force1_vx	ground_force1_vy	ground_force1_vz	ground_force1_px	ground_force1_py	ground_force1_pz	ground_torque1_x	ground_torque1_y	ground_torque1_z
4.137	0	0	0	0.2	0	-0.3	0	0	0	0	0	0	-0.13	0	0.305	0	0	0
4.138	0	0	0	0.2	0	-0.3	0	0	0	0	0	0	-0.13	0	0.305	0	0	0
4.139	0	0	0	0.2	0	-0.3	0	0	0	0	0	0	-0.13	0	0.305	0	0	0
4.14	0	0	0	0.2	0	-0.3	0	0	0	0	0	0	-0.13	0	0.305	0	0	0
4.141	0	0	0	0.2	0	-0.3	0	0	0	0	0	0	-0.13	0	0.305	0	0	0
4.142	0	0	0	0.2	0	-0.3	0	0	0	0	0	0	-0.13	0	0.305	0	0	0
4.143	0	0	0	0.2	0	-0.3	0	0	0	0	0	0	-0.13	0	0.305	0	0	0
4.144	0	0	0	0.2	0	-0.3	0	0	0	0	0	0	-0.13	0	0.305	0	0	0
4.145	0	0	0	0.2	0	-0.3	0	0	0	0	0	0	-0.13	0	0.305	0	0	0
4.146	0	0	0	0.2	0	-0.3	0	0	0	0	0	0	-0.13	0	0.305	0	0	0
4.147	0	0	0	0.2	0	-0.3	0	0	0	0	0	0	-0.13	0	0.305	0	0	0
4.148	0	0	0	0.2	0	-0.3	0	0	0	0	0	0	-0.13	0	0.305	0	0	0
4.149	-2.877647	27.472471	9.881836	0.151963	0	-0.330724	0	0.563801	0	0	0	0	-0.13	0	0.305	0	0	0
4.15	-3.493963	32.282043	11.918755	0.147737	0	-0.330724	1.00E-06	0.633103	0	0	0	0	-0.13	0	0.305	0	0	0
4.151	-3.65183	39.010216	12.93697	0.142868	0	-0.328725	1.00E-06	0.756589	0	0	0	0	-0.13	0	0.305	0	0	0
4.152	-4.427452	45.191429	15.208996	0.140932	0	-0.327417	1.00E-06	0.768911	0	0	0	0	-0.13	0	0.305	0	0	0
4.153	-4.497366	55.345604	16.8543	0.140932	0	-0.328531	0.00E+00	0.768911	0	0	0	0	-0.13	0	0.305	0	0	0
4.154	-4.815265	63.938747	17.559275	0.140932	0	-0.328531	1.00E-06	0.768911	0	0	0	0	-0.13	0	0.305	0	0	0
4.155	-4.497366	66.855934	19.752974	0.138928	0	-0.335472	0.00E+00	0.913497	0	0	0	0	-0.13	0	0.305	0	0	0
4.156	-4.413743	74.906364	22.02516	0.132438	0	-0.340625	1.00E-06	0.997831	0.00E+00	0	0	0	-0.13	0	0.305	0	0	0
4.157	-2.228864	83.81041	25.629898	0.130591	0	-0.340625	1.00E-06	1.140333	0	0	0	0	-0.13	0	0.305	0	0	0
4.158	0.747513	88.230087	29.547791	0.123279	0	-0.340742	1.00E-06	1.140333	0	0	0	0	-0.13	0	0.305	0	0	0
4.159	3.876705	94.23233	32.682098	0.121199	0	-0.340231	2.00E-06	1.089017	1.00E-06	0	0	0	-0.13	0	0.305	0	0	0
4.16	5.137473	99.899399	34.327362	0.122591	0	-0.337915	1.00E-06	1.014623	1.00E-06	0	0	0	-0.13	0	0.305	0	0	0
4.161	5.525284	111.756577	35.972664	0.122591	0	-0.33671	1.00E-06	1.014623	1.00E-06	0	0	0	-0.13	0	0.305	0	0	0
4.162	6.153865	127.060112	37.069332	0.12631	0	-0.334613	1.00E-06	1.013618	1.00E-06	0	0	0	-0.13	0	0.305	0	0	0
4.163	8.348846	140.125366	38.557774	0.126582	0	-0.33416	4.00E-06	0.962304	1.00E-06	0	0	0	-0.13	0	0.305	0	0	0
4.164	10.855951	151.312561	39.811264	0.128862	0	-0.329338	4.00E-06	0.832884	1.00E-06	0	0	0	-0.13	0	0.305	0	0	0
4.165	12.030932	160.930191	40.202751	0.128862	0	-0.328665	3.00E-06	0.832884	0.00E+00	0	0	0	-0.13	0	0.305	0	0	0
4.166	12.030932	172.273193	40.202751	0.125813	0	-0.329085	3.00E-06	1.069334	0	0	0	0	-0.13	0	0.305	0	0	0
4.167	12.109505	186.178925	38.792122	0.125665	0	-0.329085	3.00E-06	1.086915	0	0	0	0	-0.13	0	0.305	0	0	0
4.168	12.574444	195.260406	36.206329	0.125177	0	-0.329391	3.00E-06	1.124783	0.00E+00	0	0	0	-0.13	0	0.305	0	0	0
4.169	12.574444	206.782013	33.071938	0.123883	0	-0.330568	3.00E-06	1.124783	1.00E-06	0	0	0	-0.13	0	0.305	0	0	0
4.17	12.418021	212.620712	28.448872	0.123999	0	-0.330568	3.00E-06	0.885596	1.00E-06	0	0	0	-0.13	0	0.305	0	0	0
4.171	11.713033	216.925766	24.29578	0.123999	0	-0.330568	2.00E-06	0.885596	1.00E-06	0	0	0	-0.13	0	0.305	0	0	0
4.172	10.693034	226.912598	20.064323	0.123999	0	-0.329001	4.00E-06	0.97919	1.00E-06	0	0	0	-0.13	0	0.305	0	0	0
4.173	10.693034	231.744949	15.519383	0.123946	0	-0.327815	4.00E-06	1.10843	1.00E-06	0	0	0	-0.13	0	0.305	0	0	0
4.174	10.763668	245.998611	9.172276	0.123946	0	-0.327815	7.00E-06	1.10843	0.00E+00	0	0	0	-0.13	0	0.305	0	0	0
4.175	12.325738	254.595612	1.963333	0.12427	0	-0.328978	7.00E-06	0.898666	1.00E-06	0	0	0	-0.13	0	0.305	0	0	0
4.176	12.325738	263.201141	-4.618725	0.12441	0	-0.328978	5.00E-06	0.898666	1.00E-06	0	0	0	-0.13	0	0.305	0	0	0
4.177	10.442162	271.481079	-9.947455	0.12441	0	-0.327498	3.00E-06	1.065658	1.00E-06	0	0	0	-0.13	0	0.305	0	0	0
4.178	9.892154	274.227905	-14.492316	0.123549	0	-0.325232	5.00E-06	1.079878	0	0	0	0	-0.13	0	0.305	0	0	0
4.179	9.494242	281.28244	-20.447407	0.122336	0	-0.325232	5.00E-06	1.079878	0	0	0	0	-0.13	0	0.305	0	0	0
4.18	9.415668	287.122681	-26.40258	0.122097	0	-0.325849	5.00E-06	1.04843	1.00E-06	0	0	0	-0.13	0	0.305	0	0	0
4.181	8.707071	291.427002	-33.376854	0.122097	0	-0.325849	-2.00E-06	0.894411	1.00E-06	0	0	0	-0.13	0	0.305	0	0	0
4.182	7.924233	299.705017	-38.391495	0.120634	0	-0.324543	-2.00E-06	0.942812	1.00E-06	0	0	0	-0.13	0	0.305	0	0	0
4.183	6.66635	305.372894	-42.936237	0.120727	0	-0.32444	1.00E-06	0.942812	2.00E-06	0	0	0	-0.13	0	0.305	0	0	0
4.184	5.959197	311.915924	-46.462479	0.120727	0	-0.323818	2.00E-06	1.007993	4.00E-06	0	0	0	-0.13	0	0.305	0	0	0
4.185	4.39352	322.233673	-50.536995	0.120802	0	-0.32379	3.00E-06	1.007993	2.00E-06	0	0	0	-0.13	0	0.305	0	0	0
4.186	3.687809	329.977112	-54.768494	0.121484	0	-0.323331	6.00E-06	1.007993	1.00E-06	0	0	0	-0.13	0	0.305	0	0	0
4.187	3.373518	340.156006	-57.824593	0.121483	0	-0.32179	6.00E-06	0.995947	0.00E+00	0	0	0	-0.13	0	0.305	0	0	0
4.188	2.74638	348.404297	-60.723743	0.121484	0	-0.320717	5.00E-06	1.042502	1.00E-06	0	0	0	-0.13	0	0.305	0	0	0
4.189	0.869301	358.907227	-62.36937	0.121634	0	-0.320099	4.00E-06	1.017115	2.00E-06	0	0	0	-0.13	0	0.305	0	0	0
4.19	-1.240614	370.437317	-64.250107	0.121634	0	-0.318852	4.00E-06	1.042502	2.00E-06	0	0	0	-0.13	0	0.305	0	0	0
4.191	-2.569132	378.524414	-65.034058	0.121741	0	-0.318804	4.00E-06	1.129714	2.00E-06	0	0	0	-0.13	0	0.305	0	0	0
4.192	-4.056236	392.823212	-65.66127	0.122705	0	-0.31761	5.00E-06	1.354477	2.00E-06	0	0	0	-0.13	0	0.305	0	0	0
4.193	-4.68121	402.789551	-65.66127	0.122705	0	-0.316883	6.00E-06	1.395814	3.00E-06	0	0	0	-0.13	0	0.305	0	0	0
4.194	-5.464049	412.082825	-65.583054	0.122705	0	-0.315798	6.00E-06	1.420981	4.00E-06	0	0	0	-0.13	0	0.305	0	0	0
4.195	-6.634699	421.54541	-65.191238	0.122254	0	-0.315798	6.00E-06	1.420981	3.00E-06	0	0	0	-0.13	0	0.305	0	0	0
4.196	-7.256786	428.756104	-64.87812	0.122391	0	-0.31555	6.00E-06	1.420981	2.00E-06	0	0	0	-0.13	0	0.305	0	0	0
4.197	-8.273899	439.775482	-64.09465	0.121953	0	-0.315319	6.00E-06	1.500903	2.00E-06	0	0	0	-0.13	0	0.305	0	0	0
4.198	-9.915263	447.161743	-62.919334	0.122135	0	-0.315319	1.20E-05	1.512239	2.00E-06	0	0	0	-0.13	0	0.305	0	0	0
4.199	-10.22811	455.92572	-62.057457	0.122135	0	-0.315319	1.00E-05	1.555771	2.00E-06	0	0	0	-0.13	0	0.305	0	0	0
4.2	-10.694495	465.04657	-61.665726	0.122135	0	-0.315009	1.60E-05	1.556323	1.00E-06	0	0	0	-0.13	0	0.305	0	0	0
4.201	-11.003735	470.381561	-60.255615	0.12249	0	-0.314171	1.00E-05	1.556323	1.00E-06	0	0	0	-0.13	0	0.305	0	0	0
4.202	-11.550134	476.931915	-59.628807	0.122416	0	-0.314171	1.00E-05	1.589715	4.00E-06	0	0	0	-0.13	0	0.305	0	0	0
4.203	-13.115812	483.791229	-58.766972	0.122416	0	-0.313617	1.00E-05	1.726891	6.00E-06	0	0	0	-0.13	0	0.305	0	0	0
4.204	-13.115812	484.830017	-57.983261	0.122352	0	-0.313177	1.00E-05	1.765416	6.00E-06	0	0	0	-0.13	0	0.305	0	0	0
4.205	-13.35225	491.543549	-57.43491	0.121493	0	-0.313177	1.10E-05	1.822844	6.00E-06	0	0	0	-0.13	0	0.305	0	0	0
4.206	-14.051467	494.455383	-57.043579	0.121493	0	-0.313177	9.00E-06	1.830715	2.00E-06	0	0	0	-0.13	0	0.305	0	0	0
4.207	-14.444329	497.229523	-57.043579	0.121493	0	-0.312413	9.00E-06	1.865743	2.00E-06	0	0	0	-0.13	0	0.305	0	0	0
4.208	-14.755733	504.279358	-57.43523	0.121343	0	-0.31174	1.00E-06	1.830715	3.00E-06	0	0	0	-0.13	0	0.305	0	0	0
4.209	-14.837914	504.458008	-57.74855	0.121343	0	-0.311002	1.00E-06	1.705471	3.00E-06	0	0	0	-0.13	0	0.305	0	0	0
4.21	-15.224283	506.024475	-58.062279	0.121343	0	-0.310906	1.10E-05	1.705471	3.00E-06	0	0	0	-0.13	0	0.305	0	0	0
4.211	-15.303576	509.971954	-58.29715	0.121493	0	-0.309959	1.10E-05	1.743726	3.00E-06	0	0	0	-0.13	0	0.305	0	0	0
4.212	-16.474949	514.123108	-58.924156	0.121831	0	-0.310183	9.00E-06	1.765898	4.00E-06	0	0	0	-0.13	0	0.305	0	0	0
4.213	-16.711388	518.081421	-61.510025	0.121853	0	-0.309959	4.00E-06	1.743726	4.00E-06	0	0	0	-0.13	0	0.305	0	0	0
4.214	-17.804909	521.705322	-62.136955	0.121996	0	-0.309174	8.00E-06	1.715199	3.00E-06	0	0	0	-0.13	0	0.305	0	0	0
4.215	-18.038462	523.79364	-64.40918	0.122202	0	-0.308164	5.00E-06	1.688379	3.00E-06	0	0	0	-0.13	0	0.305	0	0	0
4.216	-19.524124	529.65979	-65.820053	0.122616	0	-0.307806	8.00E-06	1.677417	4.00E-06	0	0	0	-0.13	0	0.305	0	0	0
4.217	-20.384094	534.681946	-66.917206	0.122836	0	-0.305573	1.10E-05	1.688379	4.00E-06	0	0	0	-0.13	0	0.305	0	0	0
4.218	-20.781284	538.303955	-70.835182	0.122836	0	-0.305561	1.10E-05	1.677417	5.00E-06	0	0	0	-0.13	0	0.305	0	0	0
4.219	-21.714775	544.50293	-73.342606	0.122885	0	-0.304949	1.00E-05	1.670434	3.00E-06	0	0	0	-0.13	0	0.305	0	0	0
4.22	-21.796955	548.988525	-75.928604	0.122885	0	-0.304745	1.00E-05	1.519428	2.00E-06	0	0	0	-0.13	0	0.305	0	0	0
4.221	-22.809017	556.056091	-78.749588	0.122885	0	-0.304629	8.00E-06	1.48032	2.00E-06	0	0	0	-0.13	0	0.305	0	0	0
4.222	-22.809017	560.027954	-80.395172	0.123287	0	-0.303679	8.00E-06	1.463724	2.00E-06	0	0	0	-0.13	0	0.305	0	0	0
4.223	-23.436155	567.44458	-83.294205	0.123312	0	-0.303201	4.00E-06	1.381929	2.00E-06	0	0	0	-0.13	0	0.305	0	0	0
